<svg width="50" height="50" viewBox="0 0 50 50" fill="none" xmlns="http://www.w3.org/2000/svg">
<path fill-rule="evenodd" clip-rule="evenodd" d="M23.5563 12.2425L12.2426 23.5562C11.4616 24.3373 11.4616 25.6036 12.2426 26.3847L23.5563 37.6984C24.3374 38.4794 25.6037 38.4794 26.3848 37.6984L37.6985 26.3847C38.4795 25.6036 38.4795 24.3373 37.6985 23.5562L26.3848 12.2425C25.6037 11.4615 24.3374 11.4615 23.5563 12.2425ZM10.8284 22.142C9.26633 23.7041 9.26633 26.2368 10.8284 27.7989L22.1421 39.1126C23.7042 40.6747 26.2369 40.6747 27.799 39.1126L39.1127 27.7989C40.6748 26.2368 40.6748 23.7041 39.1127 22.142L27.799 10.8283C26.2369 9.26623 23.7042 9.26623 22.1421 10.8283L10.8284 22.142Z" fill="black"/>
</svg>
